<?xml version="1.0" encoding="UTF-8"?>
<svg id="Layer_1" xmlns="http://www.w3.org/2000/svg" version="1.1" viewBox="0 0 1080 1080">
  <!-- Generator: Adobe Illustrator 29.0.0, SVG Export Plug-In . SVG Version: 2.1.0 Build 186)  -->
  <defs>
    <style>
      .st0 {
        fill: #ff8bd0;
      }

      .st1 {
        fill: #411a19;
      }
    </style>
  </defs>
  <circle class="st0" cx="1724.2" cy="540" r="525.8"/>
  <g>
    <path class="st1" d="M1540.5,788.2l298.1-487.7h78l-297.3,487.7h-78.8Z"/>
    <polygon class="st1" points="1601.2 361 1670.4 361 1670.4 417 1601.2 417 1601.2 486.2 1545.2 486.2 1545.2 417.1 1476 417 1476 361 1545.2 361 1545.2 291.8 1601.2 291.8 1601.2 361"/>
    <polygon class="st1" points="1923.5 699.7 1972.4 748.6 1932.8 788.2 1883.9 739.3 1834.9 788.2 1795.3 748.6 1844.2 699.7 1795.3 650.7 1834.9 611.1 1883.9 660 1932.8 611.1 1972.4 650.7 1923.5 699.7"/>
  </g>
  <circle class="st1" cx="540" cy="540" r="525.8"/>
  <g>
    <path class="st0" d="M356.3,788.2l298.1-487.7h78l-297.3,487.7h-78.8Z"/>
    <polygon class="st0" points="417 361 486.2 361 486.2 417 417 417 417 486.2 361 486.2 361 417.1 291.8 417 291.8 361 361 361 361 291.8 417 291.8 417 361"/>
    <polygon class="st0" points="739.3 699.7 788.2 748.6 748.6 788.2 699.7 739.3 650.7 788.2 611.1 748.6 660 699.7 611.1 650.7 650.7 611.1 699.7 660 748.6 611.1 788.2 650.7 739.3 699.7"/>
  </g>
</svg>