<?xml version="1.0" encoding="UTF-8"?>
<svg id="Layer_1" data-name="Layer 1" xmlns="http://www.w3.org/2000/svg" viewBox="0 0 811.87 147.15">
  <defs>
    <style>
      .cls-1 {
        fill: #ff8bd0;
      }

      .cls-2 {
        fill: #ff8bd0;
      }

      .cls-3 {
        fill: #f5e9d9;
      }
    </style>
  </defs>
  <g>
    <path class="cls-3" d="M0,143.3V1.54h20.83v141.76H0Z"/>
    <path class="cls-3" d="M31.63,143.3V1.54h19.48l19.29,73.87,1.74,6.56h1.16V1.54h19.09v141.76h-17.55l-21.22-73.87-1.74-6.56h-1.16v80.43h-19.09Z"/>
  </g>
  <g>
    <path class="cls-3" d="M345.14,143.3V1.54h20.83v141.76h-20.83Z"/>
    <path class="cls-3" d="M377.93,143.3V1.54h19.48l19.29,73.87,1.74,6.56h1.16V1.54h19.09v141.76h-17.55l-21.22-73.87-1.74-6.56h-1.16v80.43h-19.09Z"/>
    <path class="cls-3" d="M464.52,143.3V22.95h-19.67V1.54h60.17v21.41h-19.67v120.35h-20.83Z"/>
    <path class="cls-3" d="M511.19,143.3V1.54h47.64v21.41h-26.81v38.19h19.29v20.83h-19.29v39.92h26.81v21.41h-47.64Z"/>
    <path class="cls-3" d="M570.79,143.3V1.54h20.83c12.47,0,21.67,3.46,27.58,10.37,5.91,6.91,8.87,17.09,8.87,30.52,0,7.97-1.4,14.87-4.2,20.68-2.8,5.82-6.19,10.08-10.17,12.78l14.18,67.41h-20.83l-11.77-59.79h-3.66v59.79h-20.83ZM591.62,64.22c3.86,0,6.91-.85,9.16-2.56,2.25-1.7,3.86-4.13,4.82-7.28.97-3.15,1.45-6.88,1.45-11.19,0-6.75-1.11-11.94-3.33-15.57-2.22-3.63-6.25-5.45-12.1-5.45v42.05Z"/>
    <path class="cls-3" d="M636.17,143.3V1.54h47.64v21.41h-26.81v38.19h19.29v20.83h-19.29v39.92h26.81v21.41h-47.64Z"/>
    <path class="cls-3" d="M719.83,144.84c-5.72,0-10.48-.95-14.27-2.85-3.79-1.9-6.78-4.64-8.97-8.25-2.19-3.6-3.75-7.94-4.68-13.02-.93-5.08-1.4-10.8-1.4-17.17l20.44-1.93c0,3.09.11,6.06.34,8.92.22,2.86.64,5.43,1.25,7.71.61,2.28,1.51,4.1,2.7,5.45,1.19,1.35,2.72,2.03,4.58,2.03,3.09,0,5.27-1.43,6.56-4.29,1.28-2.86,1.93-6.32,1.93-10.37s-1.06-8.26-3.18-12.63c-2.12-4.37-4.66-8.52-7.62-12.44-5.01-6.69-9.4-12.89-13.16-18.61-3.76-5.72-6.69-11.35-8.77-16.88-2.09-5.53-3.13-11.31-3.13-17.36,0-4.76.61-9.14,1.83-13.16,1.22-4.02,3-7.52,5.35-10.51,2.35-2.99,5.19-5.32,8.53-6.99,3.34-1.67,7.17-2.51,11.48-2.51,5.34,0,9.85.9,13.55,2.7,3.7,1.8,6.69,4.37,8.97,7.71,2.28,3.34,3.95,7.31,5.01,11.91,1.06,4.6,1.59,9.69,1.59,15.28l-20.44,1.93c0-2.38-.11-4.77-.34-7.18-.23-2.41-.63-4.61-1.2-6.61-.58-1.99-1.42-3.6-2.51-4.82-1.09-1.22-2.51-1.83-4.24-1.83-2.7,0-4.56,1.14-5.59,3.42-1.03,2.28-1.54,5.51-1.54,9.69,0,5.4,1.45,10.61,4.34,15.62,2.89,5.01,6.78,10.87,11.67,17.55,5.85,7.91,10.62,15.17,14.32,21.79,3.7,6.62,5.55,13.95,5.55,21.99,0,5.08-.55,9.79-1.64,14.13-1.09,4.34-2.81,8.12-5.16,11.33-2.35,3.22-5.34,5.72-8.97,7.52-3.63,1.8-8.02,2.7-13.16,2.7Z"/>
    <path class="cls-3" d="M771.36,143.3V22.95h-19.67V1.54h60.17v21.41h-19.67v120.35h-20.83Z"/>
  </g>
  <g>
    <path class="cls-1" d="M322.29,60.35c-.6.12-1.74.55-2.64,2.07l-.09.17c-.94,1.87-2.12,4.22-3.54,7.07-1.36,2.74-2.9,5.51-4.57,8.22-1.61,2.61-3.36,4.96-5.21,6.98-3.63,3.99-5.45,4.7-6.07,4.82-.53.11-1.19.24-1.19-2.21,0-1.6.45-3.76,1.35-6.43.92-2.76,2.45-5.98,4.52-9.55,1.49-2.53,2.85-4.91,4.04-7.06,1.22-2.22,2.54-4.76,3.88-7.5.78-1.5,1.59-3.31,2.41-5.37.91-2.3,1.37-4.43,1.37-6.32s-.57-3.32-1.7-4.39c-1.22-1.15-3.15-1.45-5.89-.9-1.71.34-3.82.84-6.27,1.49-2.34.62-4.61,1.15-6.74,1.57-1.39.28-2.67.48-3.79.61-.16.02-.31.03-.45.05.05-.81.07-1.67.07-2.59s-.06-1.86-.17-2.84c-.12-.99-.3-1.9-.55-2.7l-.03-.1c-1.3-3.64-3.29-5.23-5.9-4.71-1.34.27-3.26,1.19-4.81,4.09-1.01,1.88-1.52,4.01-1.52,6.33,0,.52.03,1.06.09,1.58.06.53.15,1.08.27,1.65l.02.1c.83,3.14,2.35,5.38,4.55,6.68-.74,3.86-1.97,7.72-3.67,11.48-1.78,3.97-3.66,8.08-5.59,12.24-1.5,3.01-3.05,5.76-4.6,8.15-1.81,2.78-3.76,5.47-5.73,7.94-1.71,2.06-3.67,3.92-5.82,5.54-2,1.51-4,2.45-6.12,2.88-3.35.67-4.47-.45-5.02-1.35-1.11-1.81-1.67-4.16-1.67-6.98,0-1.92.19-3.88.58-5.83.15-.76.31-1.5.49-2.21,1.94.69,4.08.8,6.4.34,3.74-.75,7.38-2.73,10.82-5.91,3.28-3.03,6.03-6.59,8.18-10.57,2.21-4.1,3.33-8.04,3.33-11.71s-1.07-6.05-3.19-7.46c-2.01-1.34-4.71-1.69-8.01-1.03-4.57.91-8.81,3.12-12.61,6.56-3.62,3.28-6.74,7.09-9.3,11.32-5.32,8.81-8.17,18.18-8.15,28.47,0,3.05.41,6.16,1.78,8.88,3.16,6.27,9.46,6.34,15.57,5.12,3.39-.68,6.45-1.95,9.08-3.79,2.5-1.75,4.86-3.88,7.01-6.36,2.29-2.63,4.55-5.7,6.72-9.12,1.7-2.67,3.24-5.33,4.6-7.9.06-.1.12-.19.16-.26l.06-.11c1.58-2.94,3.24-6.27,4.94-9.9,1.7-3.63,3.23-7.27,4.56-10.84,1.02-2.73,1.79-5.27,2.3-7.57l8.71-1.74c.84-.17,1.59-.24,2.24-.2l.41-.02c1.06-.13,1.33.07,1.33.07.15.16.35.45.35,1.11,0,1.44-.63,3.14-1.91,5.11-2.46,3.98-5.08,8-7.77,11.95-2.87,4.21-5.05,8.51-6.51,12.85-.93,2.96-1.38,5.41-1.38,7.47,0,3.66,1.09,6.45,3.25,8.3,2.19,1.89,4.97,2.51,8.26,1.85,1.76-.35,3.66-1.13,5.67-2.32,1.95-1.16,3.94-2.76,5.9-4.78l.02-.02c3.54-3.69,6.56-7.87,8.99-12.44,2.28-4.3,4.35-8.31,6.14-11.92.52-.99.79-2.03.79-3.08,0-2.9-1.91-3.29-3.04-3.06ZM266.56,56.16c0,1.42-.25,3.03-.76,4.78-.51,1.77-1.08,3.21-1.69,4.29-1.5,2.64-3.5,5.11-5.95,7.34-2.29,2.09-4.45,3.34-6.44,3.74-.69.14-1.35.12-2.03-.07-.31-.09-.6-.22-.88-.42.49-1.39,1.05-2.74,1.67-4.03.87-1.81,1.67-3.42,2.34-4.71,2.17-3.88,4.48-7.18,6.86-9.79,2.75-3.01,4.34-3.7,5.05-3.84.48-.1,1.08-.15,1.23.11.39.67.59,1.55.59,2.61Z"/>
    <path class="cls-1" d="M255.81,1.55c-.18-.54-.51-.97-.97-1.24-1.13-.65-2.72-.1-3.87,1.24-.09.1-.17.21-.26.33-.02.02-.03.04-.05.07l-.19.31-.19.31s0,0,0,0c-5.88,9.56-11.94,19.15-18.04,28.57-6.72,10.37-12.95,21.1-18.52,31.9l-.51,1-30.23,6.02c2.68-6.08,5.47-12.09,8.34-17.91,3.36-6.83,7.13-13.15,11.22-18.79,1.09-1.5,2.2-2.89,3.29-4.16.87-1.01,1.75-1.91,2.61-2.7l.74-.15c.83-.17,2.14-.46,3.8-.83,1.89-.43,3.7-1.06,5.36-1.87,3.44-1.69,3.81-4.14,3.81-5.11,0-.53-.18-3.17-3.9-2.71-1.39.17-2.17.28-2.61.36-3.02.61-6.15,1.95-9.32,3.99-1.61.23-3.25.42-4.88.58-1.8.17-3.62.3-5.41.37-4.22.19-8.75.26-13.44.2-4.72-.07-9.3-.1-13.6-.1-2.99.02-5.92.11-8.73.29-6.02.37-11.89,1.53-17.2,3.74-2.83,1.18-5.57,2.77-8.2,4.77-2.71,2.17-4.98,5.01-6.74,8.46-1.76,3.45-2.66,6.99-2.66,10.52,0,2.39.5,4.68,1.47,6.8.98,2.16,2.52,3.98,4.58,5.41l.34.23.43.06c1.08.15,2.22-.36,3.05-1.35.88-1.06.89-1.98.82-2.43-.09-.55-.38-1-.81-1.28-.69-.65-1.2-1.37-1.51-2.14-.34-.83-.51-1.72-.51-2.71,0-2.63.84-5.33,2.57-8.25,1.74-2.93,3.61-5.15,5.56-6.61,2.58-1.75,5.3-3.19,8.09-4.28,6.29-2.45,13.29-3.66,20.37-4.05,3.9-.21,7.95-.35,12.01-.4,2.97,0,6.34-.04,10.02-.12,1.96-.05,3.92-.13,5.85-.24-2.62,2.77-5.17,5.93-7.61,9.44-3.73,5.34-7.34,11.24-10.73,17.52-3.13,5.81-6.17,11.85-9.06,17.96l-26.93,5.37c-1.2.24-2.34,1.03-3.5,2.42-.74.89-1.72,2.24-1.72,3.7,0,1.21.92,2.31,2.63,1.97l25.68-5.12c-2.67,5.81-5.26,11.46-7.77,16.93-2.96,6.46-5.84,12.11-8.54,16.75-2.89,4.85-6.02,9.41-9.32,13.55-4.48,5.63-10.22,10.02-17.47,11.2-3.28.53-7.3.05-7.53-3.83-.09-1.51-1.57-2.04-2.87-1.62-.88.28-1.71.88-2.44,1.77l-.11.14c-.93,1.26-1.4,2.7-1.4,4.29,0,5.32,4.82,7.29,9.4,7.06,12.29-.63,23.03-7.55,31.22-16.36,4.38-4.71,8.29-9.87,11.62-15.34,3.39-5.53,6.66-11.7,9.7-18.35,2.79-6.09,5.61-12.39,8.39-18.76l29.54-5.89c-2.51,5.42-4.82,10.98-6.86,16.58-2.58,7.04-3.93,13.75-4.03,19.98-.06,3.61.29,9.37,4.05,11.23,1.87.92,4.19.49,5.98-.61,1.85-1.15,2.54-2.59,2.73-4.2.42-3.52-.43-6.83.19-10.42.65-3.73,1.78-7.36,3.06-10.91,2.93-8.17,5.97-16.33,8.94-24.45l6.96-1.39c1.23-.24,2.39-1.08,3.55-2.55,1.17-1.48,1.67-2.55,1.67-3.57,0-1.39-1.09-2.27-2.49-1.99l-6.43,1.28c.31-.73.55-1.22.72-1.54l.08-.16c2.76-6.08,5.8-12.59,9.02-19.34,3.21-6.73,6.69-13.54,10.33-20.23,2.71-4.98,5.49-9.72,8.29-14.16h0s.02-.02.02-.03l.69-1.06s.01-.02.02-.04c.14-.29.26-.58.34-.88.17-.59.22-1.17.17-1.69-.03-.26-.08-.51-.16-.74Z"/>
  </g>
  <path class="cls-2" d="M330.9,117.31c0,2.12-1.71,3.84-3.84,3.86-7.66.09-15.33.38-22.85.86-31.25,2.01-62.42,7.51-92.73,16.36-1.55.45-2.97.93-4.59.51-1.19-.31-2.33-1.07-2.72-2.29-.36-1.12,0-2.31.69-3.23,1.24-1.67,3.17-2.06,5.06-2.59,7.96-2.33,16.02-4.43,23.97-6.25,30.51-7.01,61.8-10.75,93.11-11.1,2.15-.03,3.9,1.72,3.9,3.87Z"/>
</svg>