<?xml version="1.0" encoding="UTF-8"?>
<svg id="Layer_1" data-name="Layer 1" xmlns="http://www.w3.org/2000/svg" viewBox="0 0 157.52 157.52">
  <defs>
    <style>
      .cls-1 {
        fill: #ff8bd0;
      }
    </style>
  </defs>
  <path class="cls-1" d="M20.46,157.52L115.05,2.75h24.77L45.46,157.52h-25Z"/>
  <polygon class="cls-1" points="39.74 21.96 61.69 21.96 61.69 39.73 39.74 39.73 39.73 61.69 21.96 61.69 21.96 39.74 0 39.73 0 21.96 21.96 21.95 21.96 0 39.73 0 39.74 21.96"/>
  <polygon class="cls-1" points="142 129.43 157.52 144.95 144.95 157.52 129.43 142 113.9 157.52 101.33 144.95 116.85 129.43 101.33 113.9 113.9 101.33 129.43 116.85 144.95 101.33 157.52 113.9 142 129.43"/>
</svg>